<?xml version="1.0" encoding="UTF-8"?> <svg xmlns="http://www.w3.org/2000/svg" id="Layer_1" data-name="Layer 1" viewBox="0 0 256.73 71.2"><defs><style>.cls-1{fill:#009edb;}.cls-2{fill:#00549f;}</style></defs><title>UMIKT-colour</title><path class="cls-1" d="M.71,0H14.59a.71.71,0,0,1,.71.71V43.4c0,9.5,5.8,14.9,14.3,14.9s14.3-5.4,14.3-14.9V.71A.71.71,0,0,1,44.61,0H58.39a.71.71,0,0,1,.71.71V43.4c0,18.7-12.3,27.8-29.5,27.8S0,62.1,0,43.4V.71A.71.71,0,0,1,.71,0Z"></path><rect class="cls-2" x="127.5" y="22.88" width="14.5" height="47.12" rx="0.71" ry="0.71"></rect><rect class="cls-2" x="127.5" width="14.5" height="14.5" rx="0.71" ry="0.71"></rect><rect class="cls-1" x="22.3" width="14.5" height="14.5" rx="0.71" ry="0.71"></rect><path class="cls-2" d="M175.52,0h15.3a.71.71,0,0,1,.57,1.13L166.55,34.58a.71.71,0,0,0,0,.85l24.85,33.45a.71.71,0,0,1-.57,1.13h-15.3a.71.71,0,0,1-.57-.29L149.48,35.42a.71.71,0,0,1,0-.85L175,.29A.71.71,0,0,1,175.52,0Z"></path><path class="cls-2" d="M217.72,13.4H198a.71.71,0,0,1-.71-.71V.71A.71.71,0,0,1,198,0h58a.71.71,0,0,1,.71.71v12a.71.71,0,0,1-.71.71H234.24a.71.71,0,0,0-.71.71V69.3a.71.71,0,0,1-.71.71H219.14a.71.71,0,0,1-.71-.71V14.11A.71.71,0,0,0,217.72,13.4Z"></path><path class="cls-1" d="M105.12,29.08,84.81.3a.71.71,0,0,0-.58-.3H70.11a.71.71,0,0,0-.71.71V69.3a.71.71,0,0,0,.71.71h13a.71.71,0,0,0,.71-.71V23.79a.71.71,0,0,1,1.28-.41L105,51a.71.71,0,0,0,1.15,0l13.69-18.88a.71.71,0,0,0,.13-.42V12a.71.71,0,0,0-1.29-.41L106.28,29.08A.71.71,0,0,1,105.12,29.08Z"></path></svg> 